<?xml version="1.0" encoding="utf-8"?>
<!DOCTYPE svg PUBLIC "-//W3C//DTD SVG 1.1//EN" "http://www.w3.org/Graphics/SVG/1.1/DTD/svg11.dtd">
<svg version="1.1" xmlns="http://www.w3.org/2000/svg" xmlns:xlink="http://www.w3.org/1999/xlink" xmlns:xml="http://www.w3.org/XML/1998/namespace" xmlns:inkscape="http://www.inkscape.org/namespaces/inkscape" xmlns:sodipodi="http://sodipodi.sourceforge.net/DTD/sodipodi-0.dtd" width="512" height="512" viewBox="0, 0, 135.46667, 135.4667" id="svg5" inkscape:version="1.2.2 (732a01da63, 2022-12-09)" sodipodi:docname="bulb.svg">
  <sodipodi:namedview id="namedview7" pagecolor="#ffffff" bordercolor="#666666" borderopacity="1.0" inkscape:pageshadow="2" inkscape:pageopacity="0.0" inkscape:pagecheckerboard="0" inkscape:document-units="px" showgrid="false" inkscape:zoom="1.1490485" inkscape:cx="141.8565" inkscape:cy="255.42873" inkscape:window-width="1920" inkscape:window-height="991" inkscape:window-x="-9" inkscape:window-y="-9" inkscape:window-maximized="1" inkscape:current-layer="layer1" inkscape:showpageshadow="2" inkscape:deskcolor="#d1d1d1" />
  <defs id="defs2" />
  <g id="layer1" inkscape:label="Layer 1" inkscape:groupmode="layer">
    <path d="M67.73333 2.5E-06 A41.30081 41.30081 0 0 0 26.43252 41.30082 A41.30081 41.30081 0 0 0 47.08292 77.0685 v17.64803 c0 4.728663 3.806838 8.535505 8.535501 8.535505 h24.22981 c4.728663 0 8.535501 -3.806842 8.535501 -8.535505 V77.0685 A41.30081 41.30081 0 0 0 109.0341 41.30082 A41.30081 41.30081 0 0 0 67.73333 2.5E-06 Z M51.70721 107.3821 c-2.561846 0 -4.624293 2.88764 -4.624293 6.47423 v6.32526 c0 3.58658 2.062447 6.47423 4.624293 6.47423 h2.259176 v3.85474 c0 2.74567 2.210425 4.95609 4.956097 4.95609 H76.54417 c2.745672 0 4.956097 -2.21042 4.956097 -4.95609 v-3.85474 h2.259176 c2.561846 0 4.624293 -2.88765 4.624293 -6.47423 v-6.32526 c0 -3.58659 -2.062447 -6.47423 -4.624293 -6.47423 z" id="primary" stroke-width="0.270841" stroke-linejoin="round" stroke-dasharray="0 2.97926" inkscape:label="primary" style="fill:yellow;" />
  </g>
</svg>